<mxfile host="Electron" agent="Mozilla/5.0 (Macintosh; Intel Mac OS X 10_15_7) AppleWebKit/537.36 (KHTML, like Gecko) draw.io/26.0.9 Chrome/128.0.6613.186 Electron/32.2.5 Safari/537.36" version="26.0.9">
  <diagram name="第 1 页" id="f0f5sgMqOpW9kOp4QaR0">
    <mxGraphModel dx="1482" dy="878" grid="1" gridSize="10" guides="1" tooltips="1" connect="1" arrows="1" fold="1" page="1" pageScale="1" pageWidth="1169" pageHeight="827" math="0" shadow="0">
      <root>
        <mxCell id="0" />
        <mxCell id="1" parent="0" />
        <mxCell id="zfd845G2xSC83K_s-k88-1" value="北极星指标定义" style="shape=rectangle;fillColor=#228B22;strokeColor=#000000;fontSize=10;" vertex="1" parent="1">
          <mxGeometry x="20" y="20" width="160" height="80" as="geometry" />
        </mxCell>
        <mxCell id="zfd845G2xSC83K_s-k88-2" value="赛道切割" style="shape=rectangle;fillColor=#228B22;strokeColor=#000000;fontSize=10;" vertex="1" parent="1">
          <mxGeometry x="200" y="20" width="160" height="80" as="geometry" />
        </mxCell>
        <mxCell id="zfd845G2xSC83K_s-k88-3" value="价值锥体构建" style="shape=rectangle;fillColor=#228B22;strokeColor=#000000;fontSize=10;" vertex="1" parent="1">
          <mxGeometry x="380" y="20" width="160" height="80" as="geometry" />
        </mxCell>
        <mxCell id="zfd845G2xSC83K_s-k88-4" value="增长飞轮设计" style="shape=rectangle;fillColor=#228B22;strokeColor=#000000;fontSize=10;" vertex="1" parent="1">
          <mxGeometry x="560" y="20" width="160" height="80" as="geometry" />
        </mxCell>
        <mxCell id="zfd845G2xSC83K_s-k88-5" value="经济单元验证" style="shape=rectangle;fillColor=#228B22;strokeColor=#000000;fontSize=10;" vertex="1" parent="1">
          <mxGeometry x="20" y="120" width="160" height="80" as="geometry" />
        </mxCell>
        <mxCell id="zfd845G2xSC83K_s-k88-6" value="MVP熔断测试" style="shape=rectangle;fillColor=#228B22;strokeColor=#000000;fontSize=10;" vertex="1" parent="1">
          <mxGeometry x="200" y="120" width="160" height="80" as="geometry" />
        </mxCell>
        <mxCell id="zfd845G2xSC83K_s-k88-7" value="资本导航图" style="shape=rectangle;fillColor=#FF6B6B;strokeColor=#000000;fontSize=10;" vertex="1" parent="1">
          <mxGeometry x="380" y="120" width="160" height="80" as="geometry" />
        </mxCell>
        <mxCell id="zfd845G2xSC83K_s-k88-8" value="抗脆弱架构" style="shape=rectangle;fillColor=#FF6B6B;strokeColor=#000000;fontSize=10;" vertex="1" parent="1">
          <mxGeometry x="560" y="120" width="160" height="80" as="geometry" />
        </mxCell>
        <mxCell id="zfd845G2xSC83K_s-k88-9" value="组织代码编写" style="shape=rectangle;fillColor=#FF6B6B;strokeColor=#000000;fontSize=10;" vertex="1" parent="1">
          <mxGeometry x="20" y="220" width="160" height="80" as="geometry" />
        </mxCell>
        <mxCell id="zfd845G2xSC83K_s-k88-10" value="智能增强层" style="shape=rectangle;fillColor=#FF6B6B;strokeColor=#000000;fontSize=10;" vertex="1" parent="1">
          <mxGeometry x="200" y="220" width="160" height="80" as="geometry" />
        </mxCell>
        <mxCell id="zfd845G2xSC83K_s-k88-11" value="决策加速器" style="shape=ellipse;fillColor=#00CED1;strokeColor=#000000;fontSize=10;" vertex="1" parent="1">
          <mxGeometry x="760" y="20" width="120" height="40" as="geometry" />
        </mxCell>
        <mxCell id="zfd845G2xSC83K_s-k88-12" value="认知保险丝" style="shape=ellipse;fillColor=#00CED1;strokeColor=#000000;fontSize=10;" vertex="1" parent="1">
          <mxGeometry x="760" y="80" width="120" height="40" as="geometry" />
        </mxCell>
        <mxCell id="zfd845G2xSC83K_s-k88-13" value="知识晶体" style="shape=ellipse;fillColor=#00CED1;strokeColor=#000000;fontSize=10;" vertex="1" parent="1">
          <mxGeometry x="760" y="140" width="120" height="40" as="geometry" />
        </mxCell>
        <mxCell id="zfd845G2xSC83K_s-k88-14" value="价值验证不足\n优化方案：增加JTBD框架客户访谈模块\n预期收益：PMF达成速度提升40%" style="shape=hexagon;fillColor=#6A5ACD;strokeColor=#000000;fontSize=8;" vertex="1" parent="1">
          <mxGeometry x="760" y="220" width="180" height="60" as="geometry" />
        </mxCell>
        <mxCell id="zfd845G2xSC83K_s-k88-15" value="财务模型脆弱\n优化方案：植入Monte Carlo模拟引擎\n预期收益：抗波动能力增强35%" style="shape=hexagon;fillColor=#6A5ACD;strokeColor=#000000;fontSize=8;" vertex="1" parent="1">
          <mxGeometry x="760" y="290" width="180" height="60" as="geometry" />
        </mxCell>
        <mxCell id="zfd845G2xSC83K_s-k88-16" value="法律漏洞\n优化方案：接入Clause法律条款生成API\n预期收益：合规成本降低58%" style="shape=hexagon;fillColor=#6A5ACD;strokeColor=#000000;fontSize=8;" vertex="1" parent="1">
          <mxGeometry x="760" y="360" width="180" height="60" as="geometry" />
        </mxCell>
        <mxCell id="zfd845G2xSC83K_s-k88-17" style="edgeStyle=orthogonalEdgeStyle;rounded=0;orthogonalLoop=1;jettySize=auto;html=1" edge="1" parent="1" source="zfd845G2xSC83K_s-k88-1" target="zfd845G2xSC83K_s-k88-2">
          <mxGeometry relative="1" as="geometry" />
        </mxCell>
        <mxCell id="zfd845G2xSC83K_s-k88-18" style="edgeStyle=orthogonalEdgeStyle;rounded=0;orthogonalLoop=1;jettySize=auto;html=1" edge="1" parent="1" source="zfd845G2xSC83K_s-k88-2" target="zfd845G2xSC83K_s-k88-3">
          <mxGeometry relative="1" as="geometry" />
        </mxCell>
        <mxCell id="zfd845G2xSC83K_s-k88-19" style="edgeStyle=orthogonalEdgeStyle;rounded=0;orthogonalLoop=1;jettySize=auto;html=1" edge="1" parent="1" source="zfd845G2xSC83K_s-k88-3" target="zfd845G2xSC83K_s-k88-4">
          <mxGeometry relative="1" as="geometry" />
        </mxCell>
        <mxCell id="zfd845G2xSC83K_s-k88-20" style="edgeStyle=orthogonalEdgeStyle;rounded=0;orthogonalLoop=1;jettySize=auto;html=1" edge="1" parent="1" source="zfd845G2xSC83K_s-k88-4" target="zfd845G2xSC83K_s-k88-5">
          <mxGeometry relative="1" as="geometry" />
        </mxCell>
        <mxCell id="zfd845G2xSC83K_s-k88-21" style="edgeStyle=orthogonalEdgeStyle;rounded=0;orthogonalLoop=1;jettySize=auto;html=1" edge="1" parent="1" source="zfd845G2xSC83K_s-k88-5" target="zfd845G2xSC83K_s-k88-6">
          <mxGeometry relative="1" as="geometry" />
        </mxCell>
        <mxCell id="zfd845G2xSC83K_s-k88-22" style="edgeStyle=orthogonalEdgeStyle;rounded=0;orthogonalLoop=1;jettySize=auto;html=1" edge="1" parent="1" source="zfd845G2xSC83K_s-k88-6" target="zfd845G2xSC83K_s-k88-7">
          <mxGeometry relative="1" as="geometry" />
        </mxCell>
        <mxCell id="zfd845G2xSC83K_s-k88-23" style="edgeStyle=orthogonalEdgeStyle;rounded=0;orthogonalLoop=1;jettySize=auto;html=1" edge="1" parent="1" source="zfd845G2xSC83K_s-k88-7" target="zfd845G2xSC83K_s-k88-8">
          <mxGeometry relative="1" as="geometry" />
        </mxCell>
        <mxCell id="zfd845G2xSC83K_s-k88-24" style="edgeStyle=orthogonalEdgeStyle;rounded=0;orthogonalLoop=1;jettySize=auto;html=1" edge="1" parent="1" source="zfd845G2xSC83K_s-k88-8" target="zfd845G2xSC83K_s-k88-9">
          <mxGeometry relative="1" as="geometry" />
        </mxCell>
        <mxCell id="zfd845G2xSC83K_s-k88-25" style="edgeStyle=orthogonalEdgeStyle;rounded=0;orthogonalLoop=1;jettySize=auto;html=1" edge="1" parent="1" source="zfd845G2xSC83K_s-k88-9" target="zfd845G2xSC83K_s-k88-10">
          <mxGeometry relative="1" as="geometry" />
        </mxCell>
      </root>
    </mxGraphModel>
  </diagram>
</mxfile>
